<mxfile host="app.diagrams.net" modified="2023-09-05T06:39:48.119Z" agent="Mozilla/5.0 (Windows NT 10.0; Win64; x64) AppleWebKit/537.36 (KHTML, like Gecko) Chrome/116.0.0.0 Safari/537.36 Edg/116.0.1938.69" etag="2w737qrp8E-_GWwBqqLF" version="21.7.2" type="github">
  <diagram name="第 1 页" id="KigrKa__kYN8QisRcchh">
    <mxGraphModel dx="1331" dy="764" grid="1" gridSize="10" guides="1" tooltips="1" connect="1" arrows="1" fold="1" page="1" pageScale="1" pageWidth="1169" pageHeight="827" math="0" shadow="0">
      <root>
        <mxCell id="0" />
        <mxCell id="1" parent="0" />
        <mxCell id="DEHo4Fuqt3TBxRoYZ2KS-3" value="" style="endArrow=classic;html=1;rounded=0;entryX=0.5;entryY=0;entryDx=0;entryDy=0;exitX=0.5;exitY=1;exitDx=0;exitDy=0;fillColor=#dae8fc;strokeColor=#6c8ebf;" edge="1" parent="1" source="DEHo4Fuqt3TBxRoYZ2KS-4" target="DEHo4Fuqt3TBxRoYZ2KS-5">
          <mxGeometry width="50" height="50" relative="1" as="geometry">
            <mxPoint x="535" y="180" as="sourcePoint" />
            <mxPoint x="430" y="260" as="targetPoint" />
          </mxGeometry>
        </mxCell>
        <mxCell id="DEHo4Fuqt3TBxRoYZ2KS-26" value="全是全费用" style="edgeLabel;html=1;align=center;verticalAlign=middle;resizable=0;points=[];" vertex="1" connectable="0" parent="DEHo4Fuqt3TBxRoYZ2KS-3">
          <mxGeometry x="-0.1323" y="-1" relative="1" as="geometry">
            <mxPoint as="offset" />
          </mxGeometry>
        </mxCell>
        <mxCell id="DEHo4Fuqt3TBxRoYZ2KS-4" value="传入idList，拿到每个数据的全/非全费用数据" style="ellipse;whiteSpace=wrap;html=1;fillColor=#dae8fc;strokeColor=#6c8ebf;" vertex="1" parent="1">
          <mxGeometry x="450" y="90" width="130" height="80" as="geometry" />
        </mxCell>
        <mxCell id="DEHo4Fuqt3TBxRoYZ2KS-5" value="只显示分部分项(全费用)" style="ellipse;whiteSpace=wrap;html=1;fillColor=#dae8fc;strokeColor=#6c8ebf;" vertex="1" parent="1">
          <mxGeometry x="380" y="220" width="120" height="80" as="geometry" />
        </mxCell>
        <mxCell id="DEHo4Fuqt3TBxRoYZ2KS-6" value="" style="endArrow=classic;html=1;rounded=0;exitX=0.5;exitY=1;exitDx=0;exitDy=0;entryX=0.5;entryY=0;entryDx=0;entryDy=0;fillColor=#dae8fc;strokeColor=#6c8ebf;" edge="1" parent="1" source="DEHo4Fuqt3TBxRoYZ2KS-4" target="DEHo4Fuqt3TBxRoYZ2KS-28">
          <mxGeometry width="50" height="50" relative="1" as="geometry">
            <mxPoint x="660" y="290" as="sourcePoint" />
            <mxPoint x="580" y="220" as="targetPoint" />
          </mxGeometry>
        </mxCell>
        <mxCell id="DEHo4Fuqt3TBxRoYZ2KS-27" value="其他" style="edgeLabel;html=1;align=center;verticalAlign=middle;resizable=0;points=[];" vertex="1" connectable="0" parent="DEHo4Fuqt3TBxRoYZ2KS-6">
          <mxGeometry x="-0.0543" y="2" relative="1" as="geometry">
            <mxPoint as="offset" />
          </mxGeometry>
        </mxCell>
        <mxCell id="DEHo4Fuqt3TBxRoYZ2KS-17" value="" style="shape=image;verticalLabelPosition=bottom;labelBackgroundColor=default;verticalAlign=top;aspect=fixed;imageAspect=0;image=data:image/png,iVBORw0KGgoAAAANSUhEUgAAAS8AAAGXCAYAAADiR9bAAAAgAElEQVR4Ae29C5Mlx3XnNx+BCjtiN2QHaXtDsZZBEANMOMKW1xGWYuV1WHIsHbb84FISV29iZgjKjBUlUUsKokCZGs5wASpIgwT4AAlS4KhJiIRIUAIWC4AUge5pQADm/cK8eh6Y97N7eno6Hf+TeTJPZmXWreq+dftW9+mIjqpb+Tp58pxfnsyqW3edafN38hnzkZ/cYn7pJ58wbyTlrr38hPlNStti3vPer5jPfXbCPPLZx81Hfhb5t5hfWv958/SxpJAx5sy3P2/e48q9797HzSMo9/HPm/et32J+89NPmE8V2jPHnjEfWW/rfs/Pft48SO09YT7xXtfeTz5kHpm+Vm1wXK/s+a55+OGH6f/rPzrbQMo95rs+/2lz8+ZCXEbUx/Vmj1//oUFrM//hq759n+8rE+bZ579rvv4FK9cjX/pSnOcLXzLf33PdmDM/9Hkefvir5vnjsSj201nzw6/benz9Tv6Hv/FjczFXRF479LfmEZf/S3/9rPl+qS6us+b45Os3Q81CT9/dc93s+RvRxy993xwQWY2Rffiu2RNq0bMV0MC6Vm2W4HXyOQeSh8yDz59LqrxmDn/NAeoXnzT7ZOqbT5sPEpweMo+8fEmmGHN+yjz4iwyiBJZzu80jLu0jXztkUkRdfP5xC9L1XzQvno+rHdtPwonawysDO1Hfk69eMVeuyP/D5vmvOZA4eJmLk+YJ5/CPfHXCPPvqjLly22lr/qzZ8/wPzZ7rwrm/8IR5/sh1r86FmR+aJ77wsPnS3x3219KTmf8gwCDgMvHqQHQBr+b5rz5svvQ3O61ct2+a0288aya++kgMVFFvBZKU9qR5TQJJ6Om7oNGVneb7X4FuvmQAs/hP4RXrY2U/DQVe+z77aYqu3vfZ3YXeHDUTLiJ68EdzPs+gcteef9xFZTG8Ln7vizaa+90XCzP2NfPSxy34PviXR317Y30y84r5/tPfp//n915pIOqMeaUuv6jvlZm0uitmz/O2re8/v8fY1m6a028eNWevJxFcWvT2afPaj3aas/NpAhz/rLkowZBmOTbp+4i+Pv/yTnP4TF2BuIKLRw6biwzUOMncvCbhXHN+LWnv8lGz842d9H/0sqv0+gGzc39uDG6a0/tt3p1vHHV6SwTRjyPTwBDgtd889vMAxUNm4s2y3Ce+9hAB5z0PMeCOmon/C+U+bR7bWSh3+UXzicqy8ZJ58fctmB58PoAwrWH++cct4DY/VwBcWkI/qwZUA33SwBDg9Yr5HAHmi+ZFnrkyGsDeFu19ffp1l/q6eYTKfd48fSZTgC5xHhl5zZjv/PoA6KHs9BO2vd96xhSrLzWr11UDqoGx18Dy4TU3ZR4kCD1uXioHQrQxH8HrzHN+8/+Voppy8OKIrT7SU3gVlaoJqoFVoYHlw8vsNo/QXb96mJzZ/lmKhN73+f1OcQymz5rvZO5CUqbsDYJz5unNg5eN5mUXef3+i5UN/VUxctoJ1cAa18AQ4DUXNse/VtocP2q+4zbsH5lmjZ8xT/+WhdD930vvUNo8fmM+eTTD7599fKoApjnz0p/Zuj/ybV00ssb1qBpYTRoYAryMMTufdI8mfN5MHEgfXBDPcr33aXNCaM/DKfcMmHiOq/Jc2fkXzSdctFd9NMOYa9PumbP1j5uXquIICfRUNaAa6KsGhgMvM2f2PfpZ/7DpB3//CTPxvVfMi99+yjx476ft9Z/5YuYh1Rm/BPyl9Q+ZT/z50+bZH71oJtxDqh/59jPuZoDcsLeqPvPsV/xDsXi49Rvf/rF55XtPm8/9vpNjfc8eUu2rBancqoEV0sCQ4AXpb5kzP5oIT9TTJr5dun3w9582b5TuRF47ZJ7+2EMefPZp/IfMp76Nh0/5TmYVXmjx2p5nzIP+iXrbFsq/794nzIvHbq2QSrVZ1YBqYBQaaAevhhLNX75krrn/+aYMmbtWLcMb9j+fPJmfynEttHet5o5nWkw/qwZUA/3VQCfwGpY6rj37Ffus1senTO6B7mG1o/WoBlQD/dPACsOrJiy79rr//qL8SlH/VKwSqwZUA11oYGXhhWXhz37efO7bPzb7jvHSb8bs+96E+b2fsXtY79n8nD4h38XIa52qgZ5rYGXh5Z+yD5vttGHvNvs3fuxFc6ImOOu57lV81YBqYBkaWFl4LUNwLaoaUA2sbQ0ovNb2+GvvVQO91YDCq7dDp4KrBta2BhRea3v8tfeqgd5qQOHV26FTwVUDa1sDCq+1Pf7ae9VAbzWg8Ort0KngqoG1rQGF19oef+29aqC3GlB49XboVHDVwNrWgMJrbY+/9l410FsNrDt58qTRf9WB2oDaQN9sYHVHXs9sMubtbzPm4YP9mV1Y5mf6I7JKOoYa+FDP7H4JKlzd8MIAvuPnjCn/Av0SVNagCACUa/fwZ4x5xwCjWhK8DhrzC28z5hc+Uy9cSa76UsNNXVL/ligCtzVIL1H1PzDmHZuiK80+oNzb7GSJCVO2+fDPhetIW+p/40lYyLLcSRA+BHlz9txMMZ3lWsXwcgMojagzNSYVlyCx0vDi9pvohI12qY72oR8kSnEfGSjLdap87eKqcGD0oWl7LF8qP18v6SN17sMi2md4NZVB9IJOue3G8EIp1/82IGb7kH305Q+6IMBNlDIPn/u8aQe6+dx/eOUUzspcyhFGO6jOQc4PY0uNGePH9dYZIRtqydCRnjqWyURe7DBNdZAa3lKjVu5jRUZnwIP6x05XknuQ7tlPGL7PLMGJWUY5TnytNC7cbu7IY7GUsqiP2/by1ACkpLfSdalPHjvfTq4zru10fNHH1IZyxYd4rf/wyimDB0EOTC5f62uFgUvrgbF1AS824krdGXixTCiTGhqnQU8lHQ0TXjweJQfCdS+Hg01F5po+cn/4yLBgJ+T2K3VygfTo2pJ6Zt0vBUAsz1LKQjRum/uTm6zSLjT5jDH2em84uXLbqS4VXk003iBPnbGQUzbY00Ad3li4TedYuM4GVeeQnMYDzU5UqZfrF4aaGjq3J42Nr3E7fEydDnsxaX1shChTSTPGDBNeonteb7LNyImWCS8ee9Y5t826qtM958WRwL4p7JdyeSm3zF93zjItpSzq5ba97C1AXidXpPem8CqMD/qokVedtpukOeVKJ5fFGsErM/OiDobPICOEsUmAcPtc3hshJ4gjG6psg6+lDumLDTDmnGENcqgu4ZXqJnKignMwbEvjCl1wn0p64vQ6/XudJic8BnJckizFj9yuL+vGiyeb3FH2k9v2cg8Y76IgSUKkd2HfOXlYp2zDvi+uTvRR4ZUouO3HQU5H6Q0iL3YWOSA0QA3uXsLYUgdFP3jgc8aBazAINlQ2jorh5xQyyJgBBCE3y8EGmatykB5zZWQfS3XndBg50RLhhTqgQ+/gBQFZv4PypcW5XGns5HWpa9RTGcO68cqkcdtZmZ2+ZPuDzrP1CPsspXNfpE+wniBj2m9O6+i4uva8GjtlE3iJwSRHzBgVjDLnpKWBZPnqjIMNFfBqC1qerbmOQUacpku5egMv57w5x2FoyH7BkXgcWF/sXJyf9SLLsU55UuEy6TE3ZlyvL5uxJV9PJo3blvL4/A1PmsCd9VJqh+Xw/ZBtO7lZdzm/kNmHcL6K4OWUlzNiqaicccn09JwN70OYWZKZndPSwcYg5+QYZBxomw0ERpDWm8rmP2cM3qe5E247a3hpZganiNYyWbKXuJ2S8UJnqW4wJh4kLSIv1r8vm0jE6SU9lhya+yDL8bg843Sd0yOXS/vOcvgydeOVSeO2pTxJV8sfa+CeFmL5c+3UpaX1jOjz6oEXG4h3jGGF086YABNftxgdgmHi5MOAlzd00VbxVBg85EmdB+VychbrW0J+rouNPCeDlyOJfCGbB1BDeDXpD9tEzhlZXn40w7cvIjNZjsf0GfegMewh7SPJlPQN7bAcfkzFeHk5+CSTtlR4cTnZN24md+Sx4+hJHtFX7oe8np7nlpS5toZwbXXAyw9SZlZPlVQysDSf/MyDmjUC52wyjQ09fbKf65FOIdvBOffFG3qaIf2cQDpbrgSEtC7xuQkcRHZ/yn1MHZsz5PSPa15/JVkzTs11lo7sbHX6zpXlPshyqEs6JtfN1/izLMN1c5ofm7q+ZNLYJnJ1cxuVY0mPlYzhQq7fIdWeRWMlE53cpXGXWYd0vgrgJQapBA2prJzzyPTcORsfZpmcAaHdX0huq+eitCbGwYbqDT0nkLsGuaidxOClvOnMWPdZ9o30lESUNaL4JO5j1ogTOblQ5BBiPDmdjoWyUZ7kA+tB9ivJkv3IfZDlIhldKR4r1mm2zx1EXtwvbne5R+5nrt+pgrjPqX3ies7m0/JD/Nx/eGEgedZuosDW8GJnwgOdhaVjOiAlOZZjHNwG1xEZT41jQz9Zo6opg7a6gBfLzs5CfXJyeMdnfadfLxogL+tHHtnJo/ZkhsJ5Rc6STAJMAEg0JqJulsOnu77UQYdtGtUwMFr1o0ZmIVp0Wul3lOo+ZMahUblcXcu71n94yf6XoCHztIWXzM+DJA1L1s3nJTm4fJ0RsqF6Q+dK3ZHr8M6O6xmDwmWuK9dexaGSdrqAF8sT9c3J7vtTcrpCHxOxo4/cx1z/o4zJB9Yxl6uTGwD6BUwQNY9qsBy+33V9yaRx+yxPIm7+Y0mP+dx0Ne13KWskj2tnkE+U6lrGdYVXnfJ4kLzRiZm2zpBQLhftlIyDrrslWq5NKSOnR+1nDB5lsLmMaJFneDawbB2ykY4iLzkR+Oac7GMLLycf721BboYR9OrHwTkxrvm+uE5yfmlHvv8NTpqMV6WaZcKLZWbbwVHKj7HkNLarigzdXlB4lfTLoEkNkaKcnzMGt8xLfzC2gfByTgEDkIPPhioNRbaTTS/AS5bj/rDBVfolMzt4cd6lHNP6uX3v7NzemMOLnRhyS4eVMOOucAScjinXURpTX75wwmNe0V0hP11uCS+Wkcd6UFs8nsif1UWdbMNJU3hl9bjMUDgbYYhlHBtIzphrDTUTBZD8DeCVGmedDKiT+jDEDfuSTvhRBe8sIoJhGeVRgj47duIi99nXLdKKp6J9KvcDN7kcNOZhTEqZRyHSutBXObYsh7yWlqn7XGsThYIMlzZ9b1oG/cOYYILiMrnJuiDasC6vUngJA5SG3+QcAwJja+wkmbZKA9kUCGwcJXkrTuBkSKMdBgPXk5bjdnIO2VTW1BLZmKUsdc7HaV62Ul8aADqVhaHR2IHFWNJDyQ1AlbaZ+8xy8Dgs9VjbDyE719/Yhp3QPHaldrgfJXtBu23bzOmr4bVVCq+Gve97NnZ8GI0HpnPy6NqAjsIoffkBeZeSDBBKo2YnYCeToGPgRtfQ6AjgxTBnkLKcJWduqguuh+ttWo7z8TgvVw6ur3QswYuv56CV1sU6rIxfmnH5n1cXvJavD61hLWsATloBRCaiYegOOlbqWsvKzff9tQc3mA0bPm1ei5JfM5/esMFseDC5SnmR3/4rvCKl6QfVgGpgdBp4zTy5+QMWRpufNOeo4XPmyc0MqA+YJ8/E0pz7a5v/A399zii8Yt3oJ9WAamAEGrARF0NqwFFEYAqvEQyONqEaUA2UNWDhJSMrt1SUS8gzT5oPJMtHhVdZp5qiGlANjEADGnmNQMnahGpANTB8DWjkNXydao2qAdXACDSg8BqBkrUJ1YBqYPga0GXj8HWqNaoGVAMrooHMhn1GDt2wzyhFL6kGVAOj0IB8jmvAIxLuYVR6KNU9B8bwwjV9zmsU46VtqAZUAwM0MDjykkvNT79qFF4DNKrJqgHVwEg0MBheqRgaeaUa0c+qAdVADzSgXw/qwSCpiKoB1UBOAxp55bSi11QDqoGx14DCa+yHSAVUDagGchpQeOW0otdUA6qBsdeAwmvsh0gFVA2oBnIaUHjltKLXVAOqgbHXgMJr7IdIBVQNqAZyGlB45bSi11QDqoGx14DCa+yHSAVUDagGchpQeOW0otfWrgaOH127fe9ZzxVePRswFbdDDXzzcftL0O/7PztsRKselgYUXsPSpNbTbw189YsWXOv/iTF/+/1+92WNSK/wWiMDrd2s0cC2P7Pg+un/1Ji/+euajJo0ThpQeI3TaKgso9cAg+un/pEx278++va1xSVrQOG1ZNVpwd5r4EP32ojrP/uPjPnKI73vzlrrgMJrrY249tdqgMH19rcZ8ycfUa30UAMKrx4Omoq8DA3MzRnzK/+7jbgArt99/zIq06IrqQGF10pqX9serQZScL3v/xht+9raUDWg8BqqOrWysdXA5UvG/MufdxHXTxjziz83tqKqYM00oPBqpifN1WcNAFz/038floo/8y5jEIXpX681oPDq9fCp8AM1gK/7SHDd9U+MAcz0r/caUHj1fgi1A0UNAFyIsrAxj///8j8xRr+7WFRX3xIUXn0bMZW3mQZ2vR6D6z//j43BNf1bNRpQeK2aodSOeA0AUu98R4i4EHU994xP1pPVoQGF1+oYR+0Fa+CVqSq48LYI/Vt1GuglvBYXF43+qw4qNvDv/86Yn/rHccS17c/UVjr2l5WiYq/gVTHWjgdF2+sRICvg+gljPnSvgmuEPjJqiPUGXgyS27dvG/wvLCzQf/qZr+vR6mct6OH2X341jrbe/jaz+K/+V7Nw/bq3k7Wgh1H0MfU3/sz+OUqA9QJerBiG1q1bt8z8/Lz+qw7Mwjceq4Lrf/zvzPy5s2ofI7AP+CKgCd9kPx0VwHoDLwYXoHX9+nX9Vx2Y+U/+SRVc/82d5sb+vWofK2AfDLBB8Dp79qwZxv/Yw4tpDsWA8jdv3iTDnJ2bN/q/dnVwa8sDCbh+wiy+8x3m5quvqF2sgG8goGB4wWdH8dcbeCE0RdQ1Nzen8FoB4xyniWLhwx+MwfWOtxnzU//I3PzbpxVcK2QbgBd8lIMNhZcxXhkKr7UbZUlwLnzwd6rgevvbzPzXH1NwrRC4MD4KrwyumeQISRF5zc7OauS1gkYqQTLS88tXzcK9/zoLLiwhRyrLWtT/gD7rslHhpU6Yc5LLV83t9/5vMbje/hP0GZGYgmvlo3KFVw28eNmokdfKG+ooYTH31llz+5d+IQYX9rje/jYC2uzlqwqvHPBHfE2XjSOG17Xrs2r4IzbyNuAjcP2Lf5YH17/4ZwbpbeobVd61aFcKrxHC69z5i+blyR0Gx1EZtbbTPGqcO3HC3C6Aa/G/vdPMHTo0luO2Vu1K4TVCeF2/MWfOX7hkcFSoNIfKKHQFMAFQ/iWC9DJBu8c17s9yrVW7UniNEF6jcEJtoz0Us+Bye1x4Y8TNF57TyWYMl/oKr5bwujF701y8dMXguBRQIMTff+CQWYt7FEvRV9dl8HQ8Iqso4mJw4Vmuv/rmksa5rdxqV+0nHYVXA3hBSVev2jtMFy5eNq+/sYsAVmegCOVPnzlrjhw9Zk6ffsvDDuBDedRTV17T2htzW50NAtetBz/V6RjBRngLQe2q/XgrvDLwwsOpN27coO814qtB+/fvN3v37iVDQ8S0e88+AlLqLByNIbr6h9feoAjr2PETdI4j8qP83n0HzMmTpzt1jFQ2/Rw7B77WU3mJIP9oxtvfZvB1oGHrTEZXgBYicPzjXO0qHp8muld4ZeAFpRCsrl+nJ+wvXbpkLly4QMYMAzx0+Ih588hRb9zYhN+1e6+5fOUaXUPEJSOrt86eN2/s3G2uXL1O6UePHac6LOxOme0bN5gNGzaYLZM8gOHapolTvh07oNNmy4Y0P5db4nFyK7W/YeOEmanb2zg+YTZR21vNVF2+MU8bBC48nNrEedrm4ejqkntODEc+H75dLdEWxnzspM4VXhl44U0SBw8eJGDlvh6EZSCiL8yWMLoDBw+bEzMnvcHPTGy2MNiwwdx1113mjjvuMD/90z9t7r77bgLU2XMXCGZXr90ws3MBVEODF8PIQQ5gjP5TSHH+9HpqyKsAXvg+Yl3EhUclunoIlaOrM2+d87YinXGQXXFeRGqI3F97fad5+eUp/+hNbFcKr4xrL/vS2L9VAsvG48eP0z+/y+vAgQO0hwUDkvtWWCLu3LXHR1VsYDBQGBeWi5evvGT+6M47zV13/YbZfnyeIjTseyFi6wReDJ0a2ExtE9FbCi9fLoFeCsHK583UP9bBuB0JXGJpGG3S402oeJbrhF3edyF7Gl0BQojiEamjvfZ2dc0cPPSmOX5ihsoj8g92pfBaNqkyFYw9vPDFbCwTsdeFrwbh/9ChQ36px/tWiLYQdaX7VzCib/3hO83vfP2wnWGPT5h//a53mTvv/CPz8kufoijoToLZXXFEBBhQ9BOisWUtG1MoMdTm5k0tvES+yIk91Pq3bLz1/30mvqOYQAx3HOd2785GRJEOSrppeF1GV6gX2w8AGMDWxK4wUdpJz8IJ5XnfjPfRGGbDlHsc69JlY4augBc27Hfv3m0uX75M8Dp9+rRY6s0b7Fu98uprZsf0q3QOw+EBvvTDT9JS8e6730+RyJW//3MDWN3xrz5jjrh9MeyDIcwfTuTl9sG2TXsZIAsDakNyXabRUrUGctwnOvYUXtWXCLpfs2aAjfBZLhldQaeI0LEfarcQBtjV5atRZIU9VNz8QbTF+63BrjTyyrj2si/1IvLifa8zZ84QvC5evEhGxhvxvL8AY8FsCAPkGREge+qjdxLA7vyVh823/uKXab/rt766z1w7st1s2iAjlxBlLWnPi8HjlnAhUgsb+9F+14YNBnkYbCV4yX27tHzpc5B/fBzn1kc/XBtxYek4qme5ACuOrk6dOkMTDaAD22lqV4j0MWki2kI5bFtg2Yl6o4mmYSTY5zIaeWVYzO/zmpmZMUeOHKEoDM957dt/0C8R5f4CQv6Zk6fM5NQ0LQEwi16/MWX+dP16s379enPPPffQ8nDLZABVgEy4Fpw/XItBgT2lPJRCfRYcDJ9cnbg2CF5Zo+5Z5FV5iSBHWuLY9bNcOT3Ku82Y6NrZ1ZzBhImIjaO1XBtr4ZrCqwZeeEQCS0eAC4qC0WGDFLDK7S8gjEf05ZeQUVTkoi0PAN7cDqDKgSaF0uxcAq/MktAvRaO7h1zOtruq4YWXCKZvPxXA4o36Lp7lagINjtoZPq3tag1EVU30qPCqgRf2vXbt2mXOnz9P8ILRYX+Bn9cavL8QwCSfoWJwpJvzbeEV8ifLNAfNKJ2h6YDGMlAehmySFkd9De88ZmGayNel82VfIpjscfF7ubqUo6ZuGbXDSdvb1Qj1WdOPJoDpMo/CqwZeeEwCdxnx2AQUhZkSdxZ5xhw4MAyMdD9KXJdLyQCbAL26yCvkj42ZwEQQ4WgrgIfL1MGr0i+G24bNZlPlgdp5M4v+RFFeLE+lvq4coim4OnyWq0lf06i9tV11pb+e1avwqoEX3qSKqAu/9wZFNTFMmYcBESIYXiraPScLkgAqBotf9rnNdVmnXDaG/G4PKwXI8VNmRoByg7hRwLJRHQyntDyMmdP4GwBcn4+wAiCroB0dxLIvEcwsFelZrjF4oeDgqH10uovtqz/tKrwGwCv3hH2jwWYnJyAEB5fLR1vPEOGFCM9DhY0wV3+zDXve9Gf4Mizt9czNg0rbLEO3x8bgwrNcY/pCwUY21bPIqOs+Kbw6glcU2XAEk3XuHFzCNUQzASIxMBgmdZGaL5u0HcnH0ZWPvAJsN01M13730oJNPvrRLahSh8i+iysTcdF7uV7+cevoOW1PP492fOv0rfDqAl4MgwQY+YFgUIQlpYQRRz32WIJXrg655BsAF5bXwYvA5kEWQLplkttBhDeRgVoHhl3zYxeNwYVnub771wquVRa5Kbw6gFfs/BmH5iWl28gnMEnQyXR5nY2PYSPLp/tjPs8AcM3Nh8gu11b6aAa36fL6yE7sp+UhndED96fmeOuBj2WhQ+/iuuefDnwAFY9F4KtBw5RJ61raWA5bbwqvDuA17EFqXZ+HXxlcATp8J7KQ19clX9mTGm+Izqp7bmnedp+xwZ5GTdmXCOaWigDXRz+s4KqZHFrb1hjVpfBajfAaIwNbjnNgIx6R08Kv/98eQHiffOW1zQVwyXLLkUPLtptwRqUvhZfCy4NhVEbXtB1EXPw0PF5VM+glgpwXx9v/yz/v7L1cTeXXfN1CT+Gl8BpbeGG/i4FEv2D9U//Yf+brueO4PMul8FJ4ZfDS7SX+YjYeUl3yc16rZOm2kg5IwCosCXPQwjV6L5c+yzW2E9Iw7UkjrwwHFV7dzphNDbjudc1ZeOG9XPos15oAF2xI4aXwGktjxx3FLKBqIrH0rmRTSGq+8Zis2o6DwkvhNZbwGvTa5hRs+ixXPwHUFlgyfxt4fW7df2GG8d+LN6li6ah7XivnEE3ex8UA02e5Vm6cJExGfa7w0shrLCMv3DFkONUd8VNlWGKO2nG0vZUHpsJL4TV2js8Pp9ZBK5eGu5N4vELfHLHyYBkF3NvAC6+1Gsa/Lhv1MYpaYMqHU3OQyl3D0/T0Qxo1X+QehUNpG6MDZxt4ZWKUJV1SeCm8auElH07NgYqvIdKa/9IXDCI1hcbooDEuulZ4Zfirz3mtrCPUPZy6+D/81/SWCF0aruwYjQPAFF4Kr7GLWtKHU7F5T3tZI/hF63FwSpWhGZgVXgqvsYIXP5y6eM8/NfhpMn1ivpkjr0XgKbwUXmMHL31SXoHVBMYKL4XXWMGridFqHoUbbEDhpfBSeOnd317agMKrY3jZX+lJX7HsfsgieWc8/6KP/9GNjRNm+zZ+TXPhmNQRXu+ctqmztUZsdTbwglm8b50xtf/vNreP1dUx2jSFV6fwws+GbTYEo8yv8WzYIH8xyA48w6fyA67+XfJ5KFXA19EPYigAmjvorafebcx995uFJLKz1y0oFp86FkU9C48KgDz6QpQmyxmfVoJOtV0eu5JcnN72SPV5eZrrZ3bH/QKW7cGo8OoIXlWYFHVDHQYAACAASURBVCKn5IdiB8LLQzA2Eh/htfjVoLZGqvljnRf14Zxy8dH7zWIKrx33Gw+sY4+ZxfuC0xIEHnjM3CLYHTO3H1hnFne4NqlOBpJLS8DH8gCAvg0Jzjq5ZL5W54Bn6APLMPj4gln0fZ03FmTcv2Z6Vnh1Ci8ZWfFvHorIiaMpsfSL4SV+lYd/ciw6irrY4AbAi6Faiey4vB6jaGewE9Y4GsGpziEloOS5AJaLaCpAAoik8/O4oc3cdU7HcaBcNX2S9eC8JEeab+Dn9hBUeHUKr5poS0JoILxSSDHU0uuDfmiWy20wCq8WDjrQ8Qp1DYJElF6AF4EIaUl0E5UN7RPkOForyZ2Wpc9iudpi3ytqj+t1ER72zxA5yuVuNiKEnFSmDvShjzyhKLw6hdewIi8LKRs1oU6GUFt4VQ2ADUGPHeiGnTmBCBzebozHzkrXRdQUPmeiklzduCbKF8c0V9bLCFAGuQAev3T1eZyu0nro8zrj9+McxDywKD2BMOp05YrtpO26zwqv3sELwFJ4FR2zYOgrkj917opsdrM9OK2NvviO3+JTDKNmkRdFQYV9sKj/tXJBpmbwqmzUV+pNoZt+5qgsA7SKrqqTi8KrU3gNc9nogEUb9gqvyBkbGPqK5K84c9UBKwAQfaGoh2BkoRYgl9lratCW10FdXqSJ6K0ceVVBVN1LS/PEnymyXMpdSqcjhVdH8PKG4o0xs2Hv04JR5zfsEW258gqv4W2oZ/RfHbcwNq3TMpBYeFRGGXBmcUdRypOWjTbGCzDLgSC3l5TWLdql6E3smaXw8umRPE5HlXpjWM3Oic+VvO31rPAaOrw4KmoYdfHGvXsEguFlnw3barZsRD1bzfYJ97wY5d9sNrnrU8LwyLlq7zYG2bZMtjeW1s6byrbWPmcd1AIrLA3Fc15ujyi3HwbdU6TiNtP9PpLTKUElt2RsDC+3ZE0AGMMrLF+z7VX6K2BFcorPUV95D7AA8oLdKLyGDq8SFAZHXvwYA8AVwcU9UkF3CPnxitJDqA3hpXcbS+O0Bq8TdArgSCGDJWUFUiujM4XXGMErG9k4GMWwYRDKu5krY0BZmQszpeZdHWOEaMzfUVzBsVZ4jQxebQ2Xl3iZxyHIYFy6eEZM4dBWx5q/zzaj8BpbeKlj9dmxVPbu7VfhpfDqz927FVyiKIy6h1FbHSu8FF4KL4ViL21A4aXw6qXhtp2lNf/4RU7LHROFl8JL4aWRVy9tQOGl8Oql4S531tby/Y/EFF4KL4WXRl69tAGFl8Krl4arkVP/I6fljqHCS+Gl8FrFkRd9V3aVPsis8OoCXvSVHvfVHf9dxPwXtf13GJGPjQznlXfV44n60tP2+LpQ068KTZstom76PiW3m3FiGD/LKM/jWZO/DZDvo/81pMYyrrWooosxYR3CNurshr9HO4QxhN3X2FJsMyzf0o8Kry7gRRCwxrBp29YApQQOEQwK8Ap56uDlXv/cxHAyYCwCTMo0N2+CLPNmNqpngGxJv6tGnDhO1I+6NCcHv5kjdVLIyGkC2NS+TEvKoZ8BuCXHl07H3zUFvNNJRKYV6op0aetd7pjEfeBJZauZ8l/cxzUpz3LH0NpH/B1cqaPhnyu8OoNXMljeQGEksYHLt0mQ8U+GyCsAIxhXnJ8Ns3DcNk3QCc5YyMdO7sFhnY6jLji8l0VGlh7UcIRq3zwoUngIoPl6fV3hHft1abPuHWcsI/Ju8O3IaAZyhTpry2GcvA5sn0OdyZhm5J0l3TAUwphBDxJIJCvrfNDRy7OUMbEyoz0CSzE6YlmXNobcP4VXBiijvLS4uGjwv7CwYObn583s7Cz9tDg5onC60mdppJSn4uzWCKOBlk7jQSeAQWBgp6g6kTfOQfL5dthYq3XN+tdM85IiOABB0DsTl5V14VyAAu1FMzyXKR/JsSttCBk4DXr1sEI69BpPDDxGUZ0tylGEWSd/pX+2/wxUbt/bQSSv00EnYyKiY19/XYS+3DG0/dZl4yhJlWlrufCKDBWG4w0WzsUAwmALR5MGJs7hdNYRpHG5WbzxjC1AMbnV/XJQXB85vpMT8EWbfCzBjBybQJLWJeXj/goZagGLugT8orxxWhXYNr0Kjvh683INIq9MJAO9RROT60PpOqI1mx9ySn2F6JHHgo/1Y/Ic6TAXbW/ZtlUsiV0UTuOett1yDGGzG/CSTCl/0zFfWj5dNnYFr8jpeHAkvPiaOwpgBSiUI69gxLZ8xSFlfUKWPAzzEQu1MWGNcvtxKUvaZtXw7fJpQxIZJX0WcnGEgjbjaCqUSdPwOYZEDCkvQ/Jyx4HlWK5KxBxkYXmhzzTaiOonp7aQiGUNdXUzJlx/AKCfVF3kOrVNTJ65yJ76Xx4P1gGObH98lGldnSu8OoYXGXdNhOQNWsJGnOcNW0ZF1kgrRiPqCMYD52aDdcAh5+JrbPD2CCeMohjKK/fMuFwML+qzi+Js/5vMxgDohgoIrOz5tEqf3XI3ktmBCH1hyDQpR/l9lOz0EvXf9b1F5CX10vWYWL3LscK527BvAC8pq62rbgzl5IfzuryxjQU9tL+u8OoKXgWjRijvgcUzPI7CMRDacx4YjnXGGBApWJCPy5BBoD7eG+J2cM0vYVEfDJoBJPZIOL84VuoXaXYJA4MtQyZqJyrLfRdyyHTSSz6NnCrqo3SixBmoHutU9eWsXiJdSnnSc4yz1ynatOVzAM3uyXU1Jr6/iLzwWwih79y3fOTVfgxhi1wnbK+q32QsUh0u8bPCqyN4pXCxn+2shB/TkIONNOkAsiwMYTjwkk7lDDSdIWHw26btXbGaaDHaSyF4oG7M6tOm8oMg3jBPmZnjeSNGf6U+5Gxcl5bCIHIav49k2yQde9DFkEvLybGQsuTPpV7dhjjDzOmTy1E7nEZ6kWWHOSbY82Lg87LRHreLpWIWXi3HsNqnAPDSmLI+lntUeHUCLzaYMJAWQBZecPDIYbyDu+vCwJGvFbx4nyKK8KyTkDFROgwb19jArYOjrZLB1aWFyMvW084orWwREAFO0kFdmmtL9DeFDgGLISx0SvIVytG4cBl/jPVU6R9FObxEi5dMcX0yresx4bEQtgg5hR6y8BK2WOlnkmb1K/vEbeLoxs5PGDJtOOcKrw7gFRw9nuFtpBAGmww7GtwAt6rhwBhC2TQ9tFk1jFL0EjuW2xNJDJTbqavfG6p3dnbk6jG/nKrKzO2u1uNIx8TZGNqU+q/CqzpelUnF3fwgcAkQlsapab5S+brrCq8O4FWncE1be6DSMe9mzBVeCi/9YnYh2lTodAOdYelV4aXwUngpvHppAwovhVcvDXdYs7fWM97RVd34KLzWELyqNwj6a7h1Rr20tNzNkvSGi+prabrtRm8Kr47gRXdZBt1983drCo8EZMqHxx34zpC8A5lzQGk4delIi+9G0ddroruh4WsgeSO2dcSvWkH74nZ9YYkGsMo7YdX6RR3ylr9/niu5G4tHISB78hjDFjxTJ/RqHw3J63/TRvlqHFfOj5nUa7Pz+O6eK+Pky/dd9FnqTfbfXW9kb+n48uMMGyfMVPQaoKCjvFzN+lsdw+GWU3h1CK/agY8MMHY8GGLpeSsyCHZMB4XtiUNK54QM1UciYJx173ayRgY50j7kHpkI9cvnoaTjyfO8AbeCFxyW9Ufwmq48s+bBy/no6f8AegmSoG8JdyEz9N0QWqSLBPjsxKHNPCztuEGHPAkEiMgxjc5Lcvl+Z/SNNAdwHt+c/nPjz30Zh6PCa9zgJR+eFBECGSwbKsPLRR0lIwsGGcMR130EV3A0+0xa7DwMwjxY0YaEl3zgVoBARhDiPMhadTb0Tzps9s0ITleQLcq/cbN3VAY2+hFA4toTDi3bkufs6GXHBXRiHVDedEy3TcS68tFj2veC3urAxDptkEfaTU7/Mr3c51Tm0X1WeHUIL2n42XOGEYXviArkzG+/apIFBcFLOEDR8UKk4SMV5GVgMQTZ4OUxcSh2dg8+kTeCBUEktGudInbCav4YTlJXvv+Q1esrAGcL4LSxuuREu37ZSOWsbvHVrCK8WC+ib+y0OefmNH/MyejrknCX5zXjTPZQ0E2qC99O0I18mt7LyN/ukBOjLhszFMhfWpe/PD5Xh/E+r9ysxQCQhmTP48iI03N1UJqHV4AEl6keUXfeAbIRDDlF4lwermEJ6qHinSaOOiB7yBPDqypj9S0ZaR4PPC+f+wqRiD75rRHyif8teKVPBK+t7qtRie6KE0DQ3aDIqzhe0BHGjICByCzRbzJRhL4X9NYgqvKTlR+fNCLCeKFviR6K+dPyK/9ZI68MM7uCV3n2dvDyBh4cRkYhOCcgELymySE2TWC/Z0B+b5CJM3A99Ipisdxx16vRS9iwJ5jI2V/IztAKAEva9fKwAzjAFiOfaQPQ0g+HOMhwG4ACn0t5EZEBZh56zlHTDXsPPBmRVuSz/a6FF8lVBgEmLkSItJ/Fy8YJBpoYP+hA6DId/+pnMW5S7kGAo1eNbzCAO/3LSEyeyzGW9Y/BucKrQ3hVDU0YKRsIOayDlzQIMuCCYTq4xHfxuA4c43Lk1NyeP5bf7TS1zTrhzPFTfrOfHRd1MSz8pjhFZuycLAeDCccB8HL9KUWmaHPLZKYOrwfZFkCz1WwHGKDbrBNnZCT4ZMbH66t68yJESC4iLcG30r+kfQFgWSfOwwTAfUTZelmojmy/uY55MzUxYXCjxy6hBXQHlEvlW8nPCq8O4cUOHwY444AErNiYbbQAg7KG6iMuhpt3Wlkfn6NMDC9yYFoeIE+TdzsFIydAidk3gpeTx17L3PHjH50QAKjsW9G+jpMXjpMBABxtxgMw6CQ7OSDaQn7WETujBATSWB+8bCq0zWNnASr0wmNBx3jJzGX88fi0mToubxLY/Tf/+iApm6/XLetYH9wP3154uaJvx5cVd2PlNT4/jmjL3thgG40j1ABxP1Fx2TE6KrxGCq9kJvUO4+BFTiX3ioKzwHn8/oTLF0GNndVFQXhts406HjNf9jBjwNlj+d1Orl3Il9w9y8HLRmoBmlZW6wDWObjd0B/rcNZB2YFwjcqyw0aOEtcRR2kJDFCO9eGcnh8noQiOlm2YHGydzyZ3M7NQZAALkHtooK3c9Uh+AS8/7k4fKbzc+AIcZajwdoGImmR7rt8z8hqfT04Y2Afqlrqn/tSV4/JjclR4dQovjhJEJATjcA8LBhA4eDU1CnZMzk/GzkYcIELwikAgAJAYaQwD3mAWcru2gswpiES7LJc/inb5mnPQivP4aI37w+3IOqbN1CTr1kKyEiGwjmQ7pHvUy/qWdaIdW2csE+dlOapHQKDSPvdTHFnHFWik8BJlPCCT8fLXc3lxrUH+ihwNyw1suyTTkK8rvDqBFztW1fn97EYzOTso5w/henH2B4zYMTlSSWZ9GCWXt04l6ncwSw2XHYvkI4dn2WJnHQa8SL5E5opDEGjk0siBxsGI+ifqoIiNb2jASYSObN1xdMY6YujYz7nxGgAvD8RYT5X++JsiDEy3LOSIzh+tDCwfj2PpSKCVOvH1BBuIy4ZxRRsoz7qL83H5nE4G9zXX/2FfU3h1Aq/xGNxhG4vWVx1Xcvwouq3mUb11oxOFl8JL3yox5OWMwqobWKV6VXgpvBReCq9e2oDCS+HVS8NNZ2H9PJpoZ5z0rPBSeCm8NPLqpQ0ovBRevTTccYoAVJaVifoUXgovhZdGXr20AYWXwquXhqvRzspEO+Okd4WXwkvhpZFXL21A4aXw6qXhjlMEoLKsTBSo8BoxvK5dn1VYaKQzdBtYi3al8BohvM6dv2hentxhcNTZemVm69Wo97VqVwqvEcLr+o05c/7CJYPjanQi7dPKAHmt2pXCa4TwUudeGedWva9OvSu8WsLrxuxNc/HSFYPjUpwCIf7+A4fMWtyjWIq+1koZtav2gFV4NYAXlHT16lWC1YWLl83rb+wigNU5FkL502fOmiNHj5nTp9/ysAP4UB711JXXtPbG3DedwUZ4C0Htqv14K7wy8Lp9+7a5ceOGuXXrlpmbmzP79+83e/fuJUNDxLR7zz4CUuosHI0huvqH196gCOvY8RN0jiPyo/zefQfMyZOnFV5r7K6jjK4ALUTg+Me52pXCK4Oi9pdAdILV9etmfn7eXLp0yVy4cIFgAwM8dPiIefPIUQ8fbMLv2r3XXL5yja4h4pKR1Vtnz5s3du42V65ep/Sjx45THQy7FIL6ub0h90FnHF1dumyjeBz5XO2q/Zhr5JVhGyKugwcPErAAr9nZWQNFsYNgGYjoC7MljO7AwcPmxMxJn875MKM++6d3mTvu+LB5/OUp/4jE2XMvmg+/853mnk9NRmUqr/7daH+eKv96XveaXv8WT/GqZ/cq4Phd7O2Ng/uhx+HojqOrM2+di8ad9dvGrhC5v/b6TvNyZFcXaJK8eu1Gtn5uJ398wSzet86Y2v93m9vHhqOLvAzt6lZ4ZeCFZePx48fpH/CCkg4cOEB7WFC63LfCEnHnrj0+quJBgYG+9vq3zCO/9hvmnnvuMXf+6ufN6ydm6EcevvE795g77rjD3H33++lXXLgMjvw+cX63uk/jd7rzT3VFS64quBh4CrB2DuH1Hek3X8etp97tnX3xqWNZYNg895uFuXma6GzUvsPcfmCduf2BdebEr68zF5/YRWVhV7sf/ufmxsZ15tq968z+L7yQ2NUxc/Gj68zeX1lnzvzmOjP35CFz8NCb5jjZ1TEz+yfrzL5fWWeub1xn8vJUAbW4I9+31np49IVs/2vr2XG/15+5rz0YFV4ZeOEXs7FMxF4Xoi78Hzp0yC/1eN8K0RairnT/CsvHb/3hO83dd9/tfwjjXe96l7nzzjv9Z5zfdddd9rOPnhrAS/zoRDCM9EciBMxE3SH/8g12zde14/4AiGOPmcWs8zEsLLygs9Ond5oDH1pnbk3ab1pg+wFAQwR/bfJj5vCjf09R/IGX/p0599v/s4h0LJz2f3sPPSvI+kf5/Qd+bG796TqzMGn30SzMMmNMcgZZuI7lHdHH9uCZnXvBLD7wmLnFkwSBrJ1sCq8CvLBhv3v3bnP58mWC1+nTp6OQHPtWr7z6mtkx/arBOd81giFgH2PiD0Jkhb2uvfu+a37vjjvMPff8ucGPjWIf7Ozex+ln0PxPzlciLwGh7K/ChF+CSQ3QL0ETePH1SmTHRqTH9hHE3DGKpNIoZuFRREAAW3DKi3//b82+Tzzu90QRoWM/lJd6wa7+zpz8AwskGtsd95u5h5+lO9XYY8U1a1cHzOvf+oC5+fCzdI3s6pzdn01tYhbwksAYxlgDOkOpsz0EFV4FePG+15kzZwheFy9eJCPjjfiz5+z+AowFy0YYIBsVQPbUR++kpSEirHe+00Zh69evpyUkL+n8UQAmXjYyvFJIla7zbBt+ViuGFJdr9juDFeMfhrGvxjpyEQ07dZJ28wvrzOFHt5nzv2P3l25u+qjZs3O3h5m3q92fN/t/9T5Kg10BhAvf/Yo5+mvrzK5fXmeO/tr/Q2nYtjj/F+vMre98WexZBVhGYxgt08TSkmQctN/F6XGURYDmpSf3VbQDoDdZXs9SmYLcBZtReBXghaXjzMyMOXLkCD02gee89u0/6JeIWBrieS0YFkL+mZOnzOTUNC0BMIu+vHWDWb/+t81je865WZWBIkDE+1gN4WWjJvyOHkNI1OUHmNOwoZ9LZ8DpMXJsr7/meoHj2g3uxOnYiVGnPHcR2uk/+Iw54paK84+sM0f+/Jverm48zPtWf2Ruebv6gTn24XXm1se/ZG7emKOo/QKA9YXnzKyrU0Y/JNfAPSi7pE2jRVtf6A/AU83jdBT1jfu6zhhu20HM779R/hh+NAZ0fV25ncLYKLxq4IVHJLB0BLigKIT02CAFrBBd4Rkdub+AMB4wQ1oADTvDsOAFIDGgEjgxDGmJmaQVDGC5DqzlMb4SBMkSMnJwm3blBXFX8Nhj5tRv/htzpGJX36FICuC4cvWwufrHYgkZQTFpL0pj28sfKSJi0Hj7QF+awatSPuor60XCqro0tFGZzJOXNWdnCq8aeGHfa9euXeb8+fMEL4T0iLb4ea26/QXeW/JLw+yeVfq4Q7phLyHlzmnDXl53gy3BJSK53KDrteYO0lRX3pHFkil97AAgQlQ09+MQtSMyu3LvR8zujF35OudsuSgCEqCIlm7LhRfqFXtYkCFqN4JcAh0hk9VbCqv4c7MIsTxWCq8aeOExCdxlxGMTUBSWg7izyJurTQ3b5stEXt4QwgCV97xc+Sy8GGa6l9VuTILe25ZbeFQ6LpyysOxJHXrH/eb2B/7YHHZROxwYyz/Y1dwX/qW4u5jUmewJRY7fMO3WMfE4B8lVlTkFYQovn442BeRIf2lfKSJN9eQ+V/K2HwuFVw28FhYWKOo6e/YswauZgQeQNIq6OCJzj0AwvKjsxq1my0a7d7V9YrN/zGLDhs1mk7uOO5ezMuri+vgYPVoRZNPnv9o7Szz+Fi4cXfl9nXRCyjgpgHDl/evM1XvXJQCor5MiMX6INAFHMU2Cjc55ny4Fl11++v0q148YXshj4UMQS59tq/QV/SnAK5HF65E3/1M9Zj4rvAbAK/eEfWzETZ1gcOQll5oRXByc6M6hB5XY05rcKsDmlqID4BXfhWzaB823tLEfc70RdFKYOZlTyACaFUitTP8UXmMEr6xjODDFsGEQ4s7jyhhOVtbM7Kj5Vt/4UJRX2egffT8VXiODV9vB5SWeiLAiOLh03ZxfwkOlbcdC84/jJKTwGlt4qcOMo8OoTONjlwovhZdGLlFEOz7OqaCsHwuFl8JL4aXw6qUNKLwUXr00XI1K6qOStaAfhZfCS+GlkVcvbUDhpfDqpeGuhchC+1gfXSq8FF4KL428emkDCi+FVy8NV6OS+qhkLehH4aXwUnit4siLviu7Sh9kVnh1AS/6So/76o7/LmLynUP33UP/HUbkYyPDefSFasyyeKK+9LQ9vi7U9KtC02aLqJu+T8ntZpwYxs8yyvN4ZudvA+T7GL6g3lTGtRZVdDEmrEPYRp3dbHDjO4QxhN3X2FJsMyzf0o8Kry7gRRCwxrBp29YApQQOEQwK8Ap56uA1b2abGk4GjEWASZnc+/UZZPQmCw/BAbIl/a4aceI4kQPUpaVv1EicFPJnv6BeXw46D8BN6sz2hb9rCningJZphbo6GJO4DzypbDVT7ruytn9SnuWOoX0XXfwd3KWDqWoj1boUXp3BK1G2N1AYSWzg8m0SZPyTIfLKwSvOz4ZZOG6b9j+nFhyykBeO7sFhnc7DSsJLRpYe1HCEat/ICH3fE504EIQ+It3Cip2gLm12LpaRHNYDVUYzcZ215SCr14F7OaSvMyd/UjfphqGAND6ft2/XdXWTrAzWQUcvT9xf6NbrpzgmVmbkI50in69P9odlxTG2zyZjiDywSx43KpMFvWxzeecKrw7gVYlkKoZljTAaaOk0wtm9cdYuG1vMer4dNtacASHNAi6FFwGwYvyyLlvW9w3tFZctubYdMCpt2Lzk9JwGvUZggV4zjse/yrSEcvZdaQFAFaes9M/2X+rNl6nI6/rfyZi46BL68fXXRejLHUPb7zwY8+Ps9bJEyCm8OoAXDQobKgzHOxicix0Bgy0cTRqYOC/Bq1H0xc4qjWNyq5sdpbHCuEKkgrrhfHzkaAjgipzSy5nW5aIMiii4v00N2DqBh5+UPROVxfls2UhGKh9f91GIrztOl05FsPTjl+kDxjnRM/QWy2XLla5jyW/zQw6pr6WOyXN+8kmj7S3bMu9+o/6lbbccQ9gCvSRTyp/Rl9f58tMUXl3BKztIEl7J4HkQuBnTOUQdvKSTVhxS1idkydeXj1gIXhPWKPHesFDWyh7arBo+7cEBXnWOL+RiYKDNUpk0rQqDBEIAi1uSSV0NLMdyUXkxwfB1cYQOauFFTm2j2BzQ0O+gV6nH5Y4J21cAoJ9UnW1NbZN9k227sqy/BmPItsBHHs8ujwqvjuFFxl2zp+ENWsJGnOcNW0ZFKUic4Yk6ggHBQNlgnbGSc/E1Nnh7hJNLp6++bprLxYZPfXYGb/vfZDaGs8o9NylLPg11e/0RUCBHIrMDDYFPTAiDylF+HyULnfqxdH1vEXlJvXQ9Jlbv6d6m27BvAC8pq62rbgwlaHFel1eO6/LOFV5dwatg1IgEYsepOgZCe84Dw7EAiQGRggX5uAw5Rg5euOZnUevo0d2xKD02rEr9IvoIj3GUIRO1E5XlO38MwrhdC8x8GjmVc0QLA+lEuXqsU9WXs3qJdJnKKz9jnL1O0WYZoPZGQdKXSOdDHBPUSxBB5IXfQgh9577lI6/2Ywhb5DoxDlX9JmMh9beMc4VXR/BK4WI/21kJP6YhBxtp0gFkWRjCcOAlncoZaDpDwuC3TbvfnExn7cJnggfqxqw+begHQbIGecrMFF5Zjf5KfYSoxEaYpbQUBpHT+H0k6zikYw+6GHJpOTkWUpb8udSr2xBnmDl9cjlqh9NIR7LsMMcEe14MSV422uN2sVTMwqvlGFb7FABeHrfhwEzh1Qm82GDCQFoAWXjBwSOHEc6eGgM+t4IX71NEEZ51EjImSodh4xobuDUmtFUyuLq0EHktxSitbLw35Y/k5HVpri3R3xQ6BCxe5kXQcJDJpJH++bo/xnpiGPkjRTkM93jJFNcn07oeEx4LYYuQU+ghCy9hi75/hWtWv7JP3CaObuz8hCHThnOu8OoAXsHR4xneRgphsMmwo8ENcKsaDowhlE3TQ5tVwyhFNrFjwfmWVr83VO/s7MjVowVxVca0P6v980jHxNkY2pT6r8KrOl5+MhFjizoIXAKEpfFqmq9Uvu66wqsDeNUpXNMUXGoDw7EBhZfCS7+YXVgWKWSGA5mu9KjwUngpvBRevbQBhZfCq5eG29VsrvWOI/JtjAAAIABJREFUd7Qlx0fhtYbgVb1B0B9DlUbbzXnuZkl6w2Xl9RVvsq+8PN2MRbN+Kbw6ghfdZRF3aHJ3bcKt/cIjAZny4XEHvjMk7xDmHFAaQl060uK7UbnX7NTd1bR3UyGXlAnti9v1hSUa6pV3wqpOIeqQt/z981zJ3Vg8QoG7bMljDFvwTJ3Qq300JK//TRvlq3FcuQZ32KqyyzFw57IPqU7k4x/4ojneMiJk9vILWRrZWzq+/DjDxgkzFb0GKOiofkwy/Ur70uFnhVeH8Kod+Mh4Y8eDIZaetyLHYMd0UNieOKQ3bmes1UciHGAiJ0mBU/0KEtrOwSvUL5+HErAZNrzgEKw/gtd05Zk1D17OBxkEVGUEE/Qt8wj5oScBijo4kS6ix18KDu7lKqTLPgoABLmFfCLdy1ZXP9IcDNlGITefcx3QS3qN08bhqPAaN3hFQAkzIAGJHYjh5aKOkpEFg4zhiOs+gis6mo3EciDMgxVtSHi5B3FJ5gGOFn05uerM6F8kR+7NCM4ZIVuUf+Nm76gUEU5uJYcMEHDtCYeWbcnzwY4MncU6KDp5HVwIRqGuqD+VCKzQ3sD648kp2ErQf8muin3KQbTDawqvDuElDT97zjCi8B2Rj5z57VPgWVAQvCYCLIqOJ6IpNmYcGVgMwZyB+eWYNWZ2dg8+UabqXKFd6xQxvKr5YzhJXfn+Q1avrwCcLYDTxmrUgHb9spEBumGrwVezACHuj3dEqRfRN07POTen+WNOxkxdlJ/Ho5BeAkeQO9apl4Hrq6mfdCMhqMvGDAXyl9blL4/P1cXFRYP/hYUFMz8/b2ZnZw0oXzEQNpTMMWd8wfDC7GbrjCMjbidXB6V5eAVIcJnqEXXn4VD/bic5owf52PA9VHzfQ6QAGSB7yDPA0Vz+usgG9RHUCESuTzgX0Wd4NU3o8xa80ieC11b31ahEd3B26dCZ8zr5uM+lPKw3CebcuS0PXfKYNdvzqox7DbxsXm4j0YMfz9RGx++zRl4ZZnYFr/Ls7eAAKHmjZeONjwQEgtc0vbd+0wT2e+I8so4AEBhfAhGuh+AhYOWuk8PxpjcBIOx5EUzcNXIGITu3GQCWtFtxEAcbjggr6dMGoKUfDnGQ4TbCi/zE90WPTxhEZICZhx7pdatJN+w98FBvsX1bdwlM1H+SqwUIBsLFwiKd8NLPFWix7gbVT68a32AAd/ov2Z0cY657TI4Krw7hJSFSPCeHcfCSRkEwEEBJ06ichALXgWNcLj/rl9/tNLXNOuHM8VP2C+TiLhXqkuCwzm/bxPLNfuE7dWIpZ2YGd7AsOaaFfqYOVy514JkJLA/F3caKA7KuhCwEn/IkgPGrg5cHvRynuvM6uCBN2oWYGGI7isc50kNd/ZisJiYMbvSgTzzeHsIVfQk91fVpxGkKrw7hVTX2jAPSgMfOZKMFAADXrUN5YCC/d1pZH59bkODNp96YyTFRH/I0ebeTKIu2hDFH8HLGaq9l7vi55WDkcKIuK59YbnqnFe07R5vxUWPQSVQvRw6ItibscpLAyk4s9/AIBk4ffAey0Dbr0AI0lovT7CMiNSDJOTXLlUujcXfLxSQaLAE+yOJkrKsfkam7scE2GkeoAeKR3WVlLemk++sKr5HCK9kL8g7j4OVm2JzB0MzOjubywXl9Xlzzs7VzJDLgx8yXfSTGgLPH8rudhAMkd89y8LIzd4CmldU6gHUObjc1aLvvwg4EB6SyicNax4zriJ0Y9STRHuvDOTE/TrJlEktQ3OxgmE+YZ3k/jQFYd6zAN3mHV1MHr4ML6nBjDN2UwELwzupKPEqSk2dywmByQ71S96TnQXLl6luhawqvTuHFUYKYlWEc4vkrCx8Hr6ZGwI7J+cnQ2XkDROhZqMi4BQASI41hwM4j5HZt5eBl4SLaZbn8UbTL14Rz2vIBbCHyDNfi/bppMzXJus1EpmiDdSTbId1DT6zvVC5bZ+zQnFfKEp9DXj+JcP8GHRP9pzpgeKVvoK2MU6mdQfW7qDju6wDoldpaoesKr07gxY5VdX4/u9HsLoETQvXscoijAcCIHZMjlSQakDN1gKOr38EsnXUjpyCHZ9liRx0GvEi+ROaK8xJo5DvtHWgcjEhHog6O9jxEhI5s3XF0xjri/PZzbrwGwMsDMdaT7A/LVjuuPL6IdP9WLNVZDz49tZP0h2TT9PRzGFe2gXr5cjop91X2u+tzhVcn8BqPwe3aeLT+umWu2kDX9qHwUniFjf0VCv+7NnKtf3WCVOGl8FJ4KbR7aQMKL4VXLw1Xo6nVGU21GVeFl8JL4aWRVy9tQOGl8Oql4baZoTXv6ozSFF4KL4WXRl69tAGFl8Krl4ar0dTqjKbajKvCS+Gl8NLIq5c2oPBSePXScNvM0Jp3dUZpCi+Fl8JLI69e2oDCS+HVS8PVaGp1RlNtxlXhpfBSeGnk1UsbUHgpvHppuG1maM27OqM0hZfCS+GlkVcvbUDhpfDqpeFqNLU6o6k246rwUngpvDTy6qUNKLwUXr003DYztOZdnVGawqtjeNnXC4dX71pHsj884X8z0M38/Gpi/7rgjfbnqfzn3KuA+R31ldcFj+/rexUm4wiTF8zifeuMqf1/t7l9bHxkV3h1Ci/7c2Dx+9b5/fZ4t3gVMPw+cX63und0D6cUhNaYuFwMumr9vj5dKi0z4qw6++KO4NgLjwoQPPqCaOuYuf1AKW3eROUeeMzcyozTrafebcx995uFTJoc32q++rZl2Tbn1E7Ux6CH2np23C9g2R6MCq+O4FWJonJRE1/j6Il/UEP+pBkbKMNL/OiENAz6oVX/W40ushvwQ6myvJ43dDgej2OPmcUCQMiZPXgsMBhsSOPz2TmX9tQxglu2nEsL48PQHASvar66tkP9LfUwh3bag2cW5byO5s0sgWxQn2LZFF6dwktGPgwUETkxkIrwklFa+isw+CzqYqeiI7cl27cDz1CtRHZR+dhIlm7Yq7gewEs6n9dfDCvSHRyzEJkQsFwawUXASqbxGCAyW3yqDM42+XL1c/nGR/Qtq4e2Y98eggqvTuGVA07m2kB4pZBiqMnrfC3UX/lNvtIvcHvHa2twazh/tOQBUGz05KMpsYSkqCLr4HHkRdGIj+aQlkQ0DIqaqI+g0yifaJvqE0vZFvteBFPuK8sldIMokyDp6gx6SmyHymjklcFRu0uLi4sG/wsLC2Z+ft7Mzs4aUL7xbOR/5l5GPhwNCeA0jrxsGRs1oU4GlahLgMnvexWWmG36oXkTJ8uC3i7ReDlI+1YCVuln1mn1Oi/1GCTCmRkMaF+ep/LINHme5Ku2zf0E1EK7FA0ynJI6KnJQe+tClOkg5oFF6QmQfX/WieU0y1J/1Mgrw7XxhheAlYOXHGgG5RJ+yTk1UP3caNKKl2A2quE7d7TMEzCzEZZwcqdjAopYXlKdVM5FSQyRIpSa5HOAFO0wTO0R6c3gFfc5B1XUJWGVfuaoTOaRdlx/rvDqFF5hCeejId6kl8dGy0YHLIqmBsHL/Rgq2hB1x0Zabxiat51+Ko4soI+0gdFHbuObISWWYQxEPnK0R+M1KF8p8hGyUjQlQEuyMzRlvjp5fb4UVvHnFNZtbU7h1RG8qgPB0ZBc6lUdhB95sBvqElKufBZe02ZLBCkup5FXdRyqOl9KnlvHeI+LI47CsocB5BwaDutB5p3cypQ6MwFRgMTLmakze0Mgk6/UNtdN8glYpfDy6QBlKlvSno0wZVQl4FXJ235cFF5Dh1cAR220JSMvnLv9KYYXld241WzZiOhtq9k+sdmE+jabTe76FDkAgzGN9OSeG4wjyFbdzG9vPGzwa/KYRDnlCCgswXgzn6Mmf/QQiJebFTgw7BLHT6HnxyPKl9TNm/Jp28lyMoYX6rAwIoj5mxTOdqL2cE3AimQXnxP9sS4iPXJ/C0eF19DhVYIAA6YcefFjDIBUBBe3sU/RGG/yJ49JyLIWcrl2Arz0UYnSOK3B6wSdQuSYQgawq0BqZXSm8BojePkZU840k1sp4ophwyBMI6uVMaKs3LIPet5o078veqTlbBKhrYTsCq+RwastWDhKykVQqMulR3tdbdvQ/CvhdNrmcOxO4TW28BrOAKujqB5Xqw0ovBReq2pJs1odVftVnYQUXgovhZfuyfXSBhReCq9eGq5GItVIZK3pROGl8FJ4aeTVSxtQeCm8emm4ay3K0P5WI02Fl8JL4aWRVy9tQOGl8Oql4WokUo1E1ppOFF4KL4XXKo686Luyq/RBZoVXF/Cir/S4r+747yKmX5q2n/13GJGPjQznlRcJ4on60tP2+LpQ068KTZstom76TiS3m3FiGD/LKM/jWZ6/DZDvo/xC+Xb/nn2NHIIOuxgT1i9so85u+Hu0QxhD2H2NLYX+smzLOyq8uoAXQcAaw6ZtWwOUEjhEMCjAK+Spg9e8mW1qOBkwFgEmZXI/DsIgm43qGSBb0u+qESeOEzlAXdq8ITn8GzoSJ4WMnCaATe3LtMS5ofMA3KTObF/4u6aAdzqJyLRCXZEurUMvd0ziPvCkstVMue/KVr+8v9wxtO+Qi7+Duzw4Ve0krk/h1Rm8YkUHZ4eRxAYevxFis9k+GSKvHLzi/GyYheO2aZM35HJ+azTW6TysJLxkZOlBDces9s2DIoWHgEDoI3RmYcVOUJc2OxfLSP307choJq6zthxAIuAZ15mMqe+7eG8a6YYhhXb5fN5IIFG9DNZBRy9P3F/o1uunOCZWZuQjnSKfr0/2h2XFMbbPJmOIPOgfjxuVEWPcxWeFVwfwkkZKgyYM69r1WcPOEw20dBoxE3vjJKcOjpAagzfOQQbj22FjlQbM50izcEvhRTN2xfhlXbas7xvaSyKbVPb0M/qSdzD3hlhuH3r1sILscO6M4/FPyi2hnI3synqvptv+S735/lXkdfoewpjc86mp6t4l25Gvvy5CX+4Y2n6Xxs3rYJB9tkhXeHUALxooNlQ2oLl5c+78D83v/lcfMi+cv+giDOFo0sDEeQlejaIvdlZpEJNb3ewojdU5vgMB6obz8ZGjIYArckovZ1qXizIooqhxfCmXP7dO4OHnr0PGOK0KbJseyUjl4+vNyzlYRoB0wGG5MM6JnqG3nPyl61jy2/yQU+orRI88FnxkXWBMHnj+onl5coc5B7uiMXnOTz52eRii7C3b7CuWouvUv7TtlmOIdjfgJZlS/kRXrLMhHRVeXcErM0DXb0yZT9z9Z+blG3P5WZKdwENBLAuSyCsYsTWQikOKOuSsl4dhPmKhNiasUWKjPZRN26waPu3BAV51jp/REdoslUnT8DmGRAwpL0MC3YHlWC6AqRDJsU6hk1p4kVNbeMSyBscOepV6bD4mf/7SnDl/4ZK5fmOOxihuJwDQT6rOzqa2ickzsS+ft+EYog9ol4+sny6PCq+O4UXGXbOn4Q1Nwkac5w1bRkUpSJxTiDqCAcE52GCdo5Bz8bXgUCgDJ4+iGMobZvHg2NLp4mjF9r/JbGz3c1IQWNnzaVVHgRyJzA5EBD7ntE3KUf50uRv13+msReRFuqjAvJsxsXqXY4Vzt2HfAF5SVltX3RhK0OK8Lm9sY8E2219XeLWE143Zm+bipSsGx1rFF4z67rvvNr/68A5j977EgAnHQGjPUIPhWIDEgEjBgnxchuRCfRzJcSSBa955rKMHALk7dz5dyOb2jKL6uU46smxlyETtRGX5jmEeoHZPKZ9GThX1UTpRLL/cm6ovZ/VS7mtSL8Y50pktH0Hf9zcjnxuTE2RXR8w3aa9R9Dcas7htOeZYMu4/cCjYFcoRRBB54bcQLFBkmXzk1X4MYYtSX1X9xnLX+o3X1eAyCq8G8IKSrl69SrC6cPGyef2NXQSwukF4eesG8/F/f9YcOXrMnD79lpnciohg2vzZ3Z80D33ml83vfONNDz+a5YUDSDDBEIYDL+lUzkDTGRIGv23a3hWriRaj/RKCh4PX5LSxPwiSM7xTZqbwjFdq/FKvdWnpBn3kNH4fycpCOvagiyGSlothlOuLvCb16jbEeSydPrk/1A6nzc2b6zdmzDfvtZHihYt/b37vjjvM3Xd/MtZhZkzWr19v3vWudxkceSwwKd5B5e82G7Zhz4sByMtGe9wulopZeLUcw7RPtq9WJxJorINhHhVeGXjdvn3b3Lhxw9y6dcvMzc2Z/fv3m71799KeAiKm3Xv2EZDSgeBoDBvz/+Y9D5nJA4fMseNvmH/3njvMx35wgu6GffKeLeY7+w6YXV/5zcpeCepLjQGfW8GL9mnSPRZhTJQOw8Y1NnDrjGirZHB1aXbzeKlLBSsbO6E/kpPXpTmAiP6m0CFgMYQFNGjcCuVI/1zGH2M9peNuozpeosV6iOv7lPmRi9oBrs/9yp0UhV9/6VPmnns2mb/40Uvmy7/xW0Y+yEt6/6uTNNEhuvqH196gCOvY8RPm+Yfea379i29QGuxy774D5uTJ035StHIyvKqRdRZeLSIfq9+4v0E3buz8hCGBP5xzhVcGXlAKwer6dTM/P28uXbpkLly4QEYBQB06fMS8eeSoNxJslu7avddcvnKNru396m+7yMrO8I/tOW/e2LnbXLn6Mu0H/ODYcarjxF+lm73IX2cMpTQLvRJ4StFL7FhuT6RgvOREE6d8n4ORwhALkPHOz46d34+K6xqOYY9jnRy1X7p8laLb9//lUYNzyMp29eojvxZFU+985x+av3d2dfrMWYM6uG/7vvbb5r1/8SNz5ep1unbU2ZWdRMWYOIDADuRytgqvME5+EimMIYErnRAyttM0H/epzVHhlYEXIq6DBw8SsACv2dlZA0WxYrEMRPSF2Q6GcuDgYXNixs6OnAdH3P3BTPja6zvNyy9P2VvZc/Pm7LkLBLOr1274OmU5PV+dAOOo/cxb57LjrnbVbtwVXhl4Ydl4/Phx+ge8oKQDBw4YzHwACzbsse+FWRCh/M5de/zsx+CBgQJaCO8RkR089KY5fmKGyuMzyiNi4/x6bGe4fdQXR1cctWNyQxSvdrW0sVd4ZeC1uLhIURf2uhB14f/QoUNkaDBA3l9AtIWoK91nAJwANAknGCzuBsFg8Y9zhlkfHVFlXprDyegKOoRdAGBqV+31qfAqwAsb9rt37zaXL18meJ0+fTpa6mF/4ZVXXzM7pl81OAeQ2KGxjyEjK+xJYDMV1wA25Hvr7HlaPnIZPbY33j7qTEbtkB8ROvZDeQtB7aq5HSi8CvDifa8zZ84QvC5evEhGxhumvG8FCCHKggFypAWQISID3BBhIQ3LSywPELWtlNPRBn2Hd39Wql/DaTd3syR+pGIY7XDUfurUGbIDTGawjz7b1TD0spQ6FF4FeGHpODMzY44cOUKPTeA5r337D/oloty3Qsg/c/KUmZyapiUAZlE854XncPB/zz33+DtI0V0cf7dG3BnK3N2RZeiOorzNH92dzDmgnMnq0pEW343KvWan/q6jrYOe5I7uPInb9dH1IBvqlXfCqsYs6sCzT6w7/zwXdCjuxkJHADXyep1uNVvw9SP/mR+uzOt/00b5ahxXjtst9KMqt3v8xbe52Tzy6nHzvY+9y8tx5513mrvuuos+/78/Cvuh0q6Q/5M/vkERPiZMRGwcraFNuqvn24j7KPsb69j1e+OEmYpeAxTKx/nDeOX6OeprCq8aeOERCSwdAS4oCiE9Nt5hVLl9KywPEX0hLb0tXRlY6YDJ98pQtvTYA9XDjom3KGycMNsTh0yNlSKuimHXvdvJGmmuDzl4hfrl81ACNk7OmRqHbwUv1MP6I3hNV55Z8+DlfPTGiQA3+ZhA0LeEu5Af+m4ILdJFTXSLdr+694L51h/8svnLN+3dZrYrPMiM7ynuP/A35o8dzDCWmPzwEKocVzqvacfrJ6dzAXSGU07/ufGv2HGu/hFdU3jVwAv7Xrt27TLnz58neGGpiH0rfq6mbt9q4MB7pwIoRNQQRVVhBiRjZQdieLmoo9RWMEhRv/yqD9eTNTaOooIMMHTUmQcr2pDwkg/cChBk27J52ZFSB0H/pONm34zg4AzZovwbN0eRF17Gh3YkvKg94dCyLXleki/IC53FOghpPCFsNt84fM1M/AGeprdA4qfjASm08dbZF82f3v2J6En7yhhD3qXCy42BrDPYSoiuZHraj3H4rPCqgRcek8BdRjw2AUUhTMedRRmulwYxcqBK1OOckWHk4SVnfvtVkywoCDoTARZFxwuRhp+JpdHXwcsvx4LT8ZslUpmqfQ3tWqeI4VXNH8NJAsO3BVm9vpyDHZ8wWwCnjdUlJ9r1y0YqZ3W73S1Ps/CqgUHOuStjn5MRoIjGZ7P55tE5891/+z7z6D/MUNq97/+m2XXytHnpUxZe9mtPQYdopwISOY65CQHpqb5cPtKNtEldNmYokL+0Ln95fK5ivwv/CwsLFHWdPXuW4FUx1pzRuGsVYyMDLM3KcWTE7eTqoDQPr9jAuVx8RN15OGQjGDL4NIoK8rHhe6h4HcRRB2QPeWJ4xfIxHJP9Nl9vSCeoefncq3NE9BneSBH6vAWv9IngtdV9NSrRXQSYgr4mHTQT2bg/xfESoGFo+qg9CxnoMi+DBHvob0aubL0yH7eR6KHQN+7jOB018sowU8Ir94R9kwHMGXJ59nZwAJQGGC0BgeA1Te+t3zSB/Z6yoQeAwHATiHA9KVjddQIVohHhCLiGOtG/KBISsnObAWBJuxUHcbApRj7TBqClHw6BLBsEGEWEKOVFRAbnJjm9Tqsb9h4AqLfYfv2yluyB5CqAQMgY8hbGTIBWfsm9Yk8D5JVjlrVXetX4BgO407/XUSIXySOhNz7nCq8O4TUIRJRODhMiG29oBINCpOahI6HAdeAYlyOnrhhn+d1OU9usE84cty+Xg5y838PwIjm9HLZNLN/sF75TJ5ZyZozf1cNRideBgxzaxBs55K8exe3Hdc5MbDXbJ8TdxooDsq5EOQfFujFjHaTy4bMHZwXMLs3r3/1GAYMS7Xr5uI92idslvKYm7I0e9InHm/oVySP0k+lXTg+jvKbw6hBeVWNn40yNInYmGy0AALhuZ0KOZsg4PDRkfXxuQSLfTGD3XFAf8jR5t5OQD21557KOGMnibwBk7vjlbuGLuqyhi+VmIZqAo834qDHoJAsaRFvIzzpiZ5TRD9L4XVf8qEmhbXZGC1Chl8iZRR+i62l+N85oy8MsF+nwki5JS8swAHNtcr8LaVtc9Mw2Gkeood10rFkf43BUeI0UXnbj1RuEdxhn1ORUYkkkDI9mdnY0lw/O6+tiZyXguciLDPgx82UfiTHg7LH8bifndORk1SjOt+nkszN3gKaV1TqAdQ5uN3Vm66TsQHCIcgQT1xFHaagnifZYH86J+XESiuC24WYHw3zCPJvczcxCkcFRgW/yDi8xZlUHd+Ms8zj58BgJ+m51W+1PZdlIdWTq47pFvRU5JifotTvZOuvKcd1jclR4dQovGBecWAAAxuGWYcFYa4wwZyjsmJxGMGPnRV0CXtHsLACQGGkMA+eQUm7XVpA5BZFol+XyR9EuXyOZw3JUOliIPGUbso5pMzXJurWQTIHqn/OS7ZDuoSfWt6wTbdk6JUyjx1hY9uQIeSvtJ3ls/9L20juRyT6iqKM1aJLxlfrl89Z1Cnm4jpU8Krw6gRc7loCWHHgHsPAkOucP4Xpx9geMBLwoUkmiAev80qlF/Q5mqeFG8IpgKAEio4P4unXyQn/9ks+WIfkSmStOwDry8HWO72BE+hF1kB6ykSjLGUczrCOGjv2ckx+644mB6xJHD0RxTY41zrkvTj5uO+0DdED7dbk3zsp+cxTI/S2k5W0o9AVyANSsu3z+nE5q+pr2vcPPCq9O4DUeg1sBQoeGtFbbIsf3gNVxH6UdKLwUXiv2RfFRGrq2tfrAqvBSeCm8NCLtpQ0ovBRevTRcjaRWXyTVdkwVXgovhZdGXr20AYWXwquXhtt2ltb8qy9SU3gpvBReGnn10gYUXgqvXhquRlKrL5JqO6YKL4WXwksjr17agMJL4dVLw207S2v+1RepKbwUXgovjbx6aQMKL4VXLw1XI6nVF0m1HVOFl8JL4aWRVy9tQOGl8Oql4badpTX/6ovUFF4KL4WXRl69tAGFl8Krl4arkdTqi6TajqnCS+Gl8NLIq5c2oPBSePXScNvO0pp/9UVqCq+O4WVf+RtevWudyP7whP/NQDfzR68Hxqt+N9qfp8q/nte9Mjr3Fk//WuC03dVnwAqlYY3pC2bxvnXG1P6/29w+Nqz2ll+PwqtTeNmfA4vfVS7eJ1/4gQvk53ere+f070EfBCRZ/6C8yzcgL98aXHrdeurd3tkXnzomIthj5vYDAgSPviDS5k253NLT4nGI25eyLTwq5HrgMXNrCONG/Un6GMtTsLMd93v9mfvag1Hh1RG8KlGU+NGESiQloif+MYQivMSPTmQNxEddiMwUXlkdDcFhZ3fcbzwUjj1mFoXzwZkXd7DDWpD4vDXl6uqsTYv649rz7bMcDoweWIlcUR2hzGD9IWJrD57ZuRfMopdl3qB/5r77zUILORRencJL/vKKWypKoHA0VYSXjKJyvyyUwomXo1vNFoJlmm5/NzIb2bUwmsEG3cb4V0PeMjCgq3JkUlduiWmAQCEKIqiKCLEsV4sxQXsSQku2o/YQVHh1Cq8ccDLXBsIrhRBDTV6X1zKgJKPiPJll6ZKNroWhr9Y2KPIqRQ01EU5duSWmYVm4+BQiQV4eSrkACP4MuVzERG1x/kHHOMqi9jjKY5nFchARKEHSyeMj0NQWNPLKkGgJlxYXFw3+FxYWzPz8vJmdnTWgfJuIwy4bhxV5WUiFOhlCAV683PS/UF2IvNr0QfPWgznsHzEQqvkpTxKZ1JVbapodKwtKGQlRfT4SSzflc3KjjnCdojWGUwochhVfZwhyew5iHliUHsP7aZHQAAASXElEQVSP5HblwlK7qsecLWrklYHbeMMLwErgxftcPoIrRV7NjCJnKHqtTncWCrHzOVCwI7ODR8dcOW5nKWkuypOwEYCJQZbugcl2m8GrsuwUbVl7QR8krNLPHJXJPCzH4KPCq1N4ZZaIuY17D53w68V2w15Cyp3Thn3meq5ed62y+R850GAjUXAN1lHkyKUII6P3qFySvpQ0ACqCqAdKFRyzPk30D9dEpAgZovq8jE3qS/PEn1OYtrUzhVdH8KoORLNoiJd/VXi58gqvVsv36jgIR/WO2P7awqMyWoBTBmgQQMTGuJShvlxdnXVp68ImfbJ3JAEhzyETwVGACtdIdhG5pfDy6WgnKVuFYQwrusPIkVgOnC3HQ+E1dHhxVNQw6uKIyT0CwfCyz4ZtNVs2op6tZvvEZhMesdhsNrnrU9kBL4EyyGb3xto7rXTEtX1ugcUPdfp9nTm37+Q3zN0GuHf0UjmMxdLSslDi9n27qD+RLZeWLHNjeKG8hShBLAV0BUg18HL7Yaw/PuajvLydKryGDq+8omfnSkAJ+eWzYRFc3CMVFI3x4xXykYsKwEptBXjpUjLofW1DeN7YiClEjpE+UsgAeBVIrYwuFV5jBK/IaBhIbjM+hg3DSd7NXBkDysrMsutxLJa4wx4jWm4mEdqw22hSn8JrZPBqCxeOksLjEPGAunSx2R+nt21P86v++mUDCq+xhVe/DEkdX8dr1Dag8FJ4rcqlzagdSdsbPbwVXgovhZfuzfXSBhReCq9eGq5GOqOPdMZN5wovhZfCSyOvXtqAwkvh1UvDHbcoQOUZfSSo8FJ4Kbw08uqlDSi8FF69NFyNdEYf6YybzhVeCi+F1yqOvOi7sqv0QWaFVxfwoq/0uK/u+O8i5r+o7b/DiHxsZDivvKseT9SXnrbH14WaflVo2mwRddP3KbndjBPD+FlGeR7PwvxtgHwf5RfKtx/XiCHWHfTRxZiwnmEbdXazwY3vEMYQdl9jS9V+s4xLOyq8uoAXQcAaw6ZtWwOUEjhEMCjAK+Spg9e8mW1qOBkwFgEmZZqz7xpjkM1G9QyQLel31YgTx4kcoC5t3pAc/GaO1EkhI6cJYFP7Mi0pB50H4JYcXzocf9cU8E4nEZlWqCvSpa13uWMS94Enla1myn1X1vZPyrPcMbT2EX8HV+po+OcKr87glQyWN1AYSWzg8m0SZPyTIfLKwSvOz4ZZOG6bNnlDLue3cLFO52El4SUjSw9qOEK1bx4UKTwE0EIfoTMLK3aCujR+UwfLSP307choJq6zthzGScAzrjMZU9938ZsApBuGAtrlc/fjJ65uqpfBOujo5VnKmFiZ0R7ptDjJsaw4xvbZZAyRB3bJ42ZtKKev4V1TeHUAr8qsWXF2a4TRQEun8aCT0Q4bV37wvXEKKGQNyLdTVx/SLNwYDKjLO5x3JpZF1mXL+r6hvSSyycol5KZ2Km3YtqI06NXDCunQa8bxWHaus0U5G9kFAFVkr/TP9l/qzZeptOv018mYuKgU+vH110Xoyx1D229dNmaAMspLw3iHPS3j2HC8g8G52BEw2MLRpIGJczirdQRpXOEnzMLyJhNJsbMKMEAuC5a4PrnvAviiTT5yNIS2Iqf0cqZ1Sfm4vwy6QUfUVZrB4zToxkNSREGRjJnrzcs5YPvxy8gOICV6LkUgpevDH5Pn/OST2seWbVvFktjZDPVvmWMIW9iAl2S2He+MTqW91pxr5JWh4lDglVW6hFcyaB4EbsZ0DlEHL+mkFYeU9QlZ8vXlIxaC14Q1Smy0h7JW9tBm1fAJ3lgO1Tm+kIujE7RZKpOmVWFg4eb1ArC4JZm/ll3eJOVYLiovJhi+Lo7QQS28yKktJGLQhvEPepV6XO6YcP1y+RxHXlPbZN9k264s66/BGLIt8JHHs8ujwqtjeJFx1+xpeIOWsBHnecOWUVEKEmd4oo5gQDBQNlhnrORcfI0N3h4JXpPiGuWVER6Xiw2f+uwM3va/yWwMZ91QAYGVPZ+Gur3+CCiQI4kOHWgIfGJCGFSO8vsoWejUj6Xre4vIS+ql6zGxepdjhXO3Ye/0UAcvKautq24MJWhxXpdX2JOYBII+mqcrvLqCV8GoEQnEjlN1DIT2nAeGY6OGGBApWJCPy5Ah5OCFa34WtY4e3R2L0mMjqtQfGR7LVoZM1E5Ulu8YMgjjdu2eUz6NnCpaskknytVjnaq+nNVLpMtUXvkZ4+x1ijZteRnpBcfMyBfpfIhjgnoJIoi88FsIoe/ctzy82o8hbJHrRF+r+k3GQupvGecKr47glcLFfoZh2B/TkIONNOkAsiwMYTjwkk7lDDSdIWHw26Zpr4uXWwOPBA/UjVl92uR/EMQ69UzhGS/0V+ojOLuNMEtp6QZ95DR+b886DunYgy6GSFpOjoWUJX8u9eqWZQwzp08uR+1wGjmtLDvMMcGeFwOfl432uF0sFbPwajmG1T4FgJfHbTgwU3h1Ai82mDCQFkAWXnDwyGHE7JMaAz63ghfvU0QRnnUSMiZKh2HjGhu4NSa0VTK4ujQbbSx1qWBlq0CSnLwuzTmA6G8KHQIWL/MiaDjIZNJI/3zdH2M9MYz8kaIcXqLFeojrk2ldjwkDQtgi5BR6yMJL2KLvX+Ga1a/sE7eJoxs7P2HItOGcK7w6gFdw9HiGt5FCGGwy7GhwA9yqhgNjCGXT9NBm1TBKkU3sWG5PpGCodfV7Q/XOzo5cPeaXU1WZ0/6tts8jHRNnY2hT6r8Kr+p4VSYVd8eZwCVAWBqfpvlK5euuK7w6gFedwjVt7YFKx7ybMVd4Kbz0i9mFaFOh0w10hqVXhZfCS+Gl8OqlDSi8FF69NNxhzd5az3hHV3Xjo/BaQ/Cq3iDor+HWGfXS0nI3S9IbLqqvpem2G70pvDqCF91lGXT3zd+tKTwSkCkfHnfgO0PyDmTOAaXh1KUjLb4bRV/xie6G2kc8So9T2LupkEvKhPbF7frCEg1glXfCqk4i6pC3/P3zXMndWDxCAdmTxxi24Jk6oVfbl7z+N22Ur8Zx5fyYSb02O4/v7jm9pDr3+hH9pWuQ0T6yMVhXg3XeyD4rsjk9bZwwU9Frg4JO68ewmZ6qY58vp/DqEF61AykdkJ6JCQ4PwyoDQn4/zRr49sQhpXNCBoq4hMPa9Lp3O1ljgRxpH1BXKluoXz4PJZ1PnucNcbBDJnWw/ghe096xveFLeBFwYnBLkAR9yzyiPdTVEFqkiwT4JBPkTa5Tu/g2RQX20JFovwN4eT0xLFmf/Fkekebsh+0hN145e6m0I+td5rnCa9zgJR+6TIHDDsSO6aKOktEEA4ujElwnAHE9WSOykVgOhCm8rIGGyIANlhyZwcGyZ9uygGXH4PJ8RP8iOXJvRnC6gmxR/o2bvePxd/vQjoQXtSMcVLYlz0vysZw28pQAD6Dm9nisgm6Sp/L5AWY/9ltNiBZD5BXkCpNekMPBL4JidXyi/HXwcmPGsqNcsC3Zx+pkF7VRGPul5lF4dQivYGCx8/nr3qEZLnLmt0adBQVBZyJEG0XHE4bNxokjRwB18PLLMWuc7HwefMIQI1iQ04V2rZHHUUQ1f0E/8lsCkNXryznM8QmzBXDaWF1yEhx42cgAdV/NKsKL9SL6xo6Vc1ZO88ecjKgLck6c8keSLe0LykbvIot1Zh8EDvCKQJqOv+8vR/CwLz4PsPFyOxnl0/cyjeT1MLVfZdNlYwYc43BpGK/EkbMUGwIDgD+HI8MrNqxcHVSGoAN4BUiEuuI66p5+r3+3k4wggnxsyFWoAryhDGQPeVJHTGWsviUj7Y8HHjmmdUaCmYg+w6tpXDr2bPBKH+/M+F7pVvfVqER3KQCks7rzCBgZwJXGK5bd6iK71KcokeVCvvCF6lp4SVn85ITyIeocJDvtDaZAlfXSix4xybB81TFMx6zrzxp5ZWjZFbzKs7eDA82+5SgEERsBgeA1Te+t3zSB/Z5ymQAQGFsCEa6H3nEVwMMb9QSqKHoJG/bkkNLYhezcJvLY86TdyCkgl4NNMfKZNgAt/XCIgwy3EV7k5/b2nLxwXMDMg8NFhGEJ5nTGbXqnzztleexcfpKr7NgzExM1X1qvtmknCTsmoQ/2s01L5Hc6DXJanSNC8rqq6F20C/nleKZ56dXkdjLAhECvL8oAvhIdp/UM8bPCq0N4+eVhbpD5GjmPg5ccWIKBAEqaRuUkFLgOHONykbFzu5hBC/Ca2madcOb4Kb/ZzzM36vLO4MvbNrF8s1/4Tp1Yyikchvvk6ilFptYhM3X49uM6ZxBdTYi7jRWnZF2Jcg6KdWPGOshFFKRjBiH3i4+QU+rdRzHppOP0TjrGknjCzHAdBPgAr6wsEYBYX1V7yMk/KPKampgwiBbRLtsH1RO1KfTp5e7umsKrQ3hVDYwNKh3Q2JnsTAtDxnVr4B4YMArvtLI+Ps8YKzkm6kOesBSRICqBg9oSTiTLsBPYa5k7fu6tpcFx41f/2PJiuQk5MwCA48z4qDHoJKqX4YBoC/lZR+xccg+PYOL0wcugQtuyj9Xx5HEUfWjktDxWXB7HZL/T95fzhHGFvquyWL2E66INGv94QuN++SPrKSe/27ODXXL9IRqMARzZaa6uIV5TeI0UXsn7qbzDwPDCows5A4DB+v0GMZP7vOysYoa2s+lj5ss+EmODtsfyu52cw2SMPgcvOxPHzsVgscbO7bIj8hEOGxwCjkT9zAAsXfLGsE0dXwDeOSXvMW2ZxBKU9wutXM8mdzNZ9uxRgNw7PnSfux45qu0r6iQZKvnTPjid0RgwIELkFWSz1wgmkd4SnZPN1ADM6SlEejxG0OWEwWvAJbx83+vKRf0X9Q3pusKrU3jZ2TC6i+SMEU4dQODg1XRQPaicQZBh2iWH3NgleJUMOjG6GAbO+cUGPBtrkDk1xgAvzhuOiSOhnyRzDC7Ob2d17g+3I+uYNlOTrNtMZMr1o++yHdI96mV9yzrRjq2TowsrD+dlOapHyOsnkcwYEpA5wqP0ALIAIfRD9jknW4BXJCP6mMIwGV/qS2QnST9y+ZO+KLyMWZfhxVhdWv6GPTtWYaYjJ5LGyvl5hq05skM6KJFjJIZrnd/WYZ1K1O/KpYYYwavGyIcBL5IvkZnB5Y+sIyevj7wcjMjpRR0WEAIiyOfLwlHjyIZ1xNCxn3PjNQBeJKeETgKFBAC2fymYYvm4L7H8kKMAL9mG0A/3zeuU84k8MTxzdhf6xjbj5eOlenTM6bCJTtrn0cgrg83lw6v9QFQMjA1Nj2P9xXFy5AiSOvajsmWFl8JrrOEwKkfQdvoHXYWXwkvhpdFtL21A4aXw6qXhaqTUv0hp2GOm8FJ4Kbw08uqlDSi8FF69NNxhz+JaX/8iOYWXwkvhpZFXL21A4VUDr9u3b5v5+XkzOztroCidnfs3O+uYrd4xg0/CR/nRpowrD/1Sbx5SVXitXsNXqPV/bBVeGTYzyRcWFijympubG1rkde36rEZwukwbug2sRbvSZeMI4XXu/EXz8uQOg6PO/P2f+cdlDNeqXSm8auCFZeOtW7fMzZs3hxJ5Xb8xZ85fuGRwHBfDVzn6D9G1ale6bMzAC5ewdAS8eOkIRem/6kBtYLxsgDfsC2489Mtjv2HP8JIAQwSGO4+Iwq5cuUJHfG77f/HiRXPo0CG6g9m2rOZvr+++6EztqvnYwhcRVDC44Kej+usFvCTAoCxW2NWrV82ePXsoCoMCS/9wmvPnz5sTJ06Yc+fO+fLXrl0zu3fvNqinVFavl/W6mnTDYEWfYA+wC9hHXR/Xol0BUrwKgm74M99YGxW40M7YwwtKwbNdOEJZR44coX+cA2IHDx40Fy5c8M+XsBJ5JmBDRLnTp0+TUeKIfCh/+PBhAhqX0+NiRZerUSewjxs3bnhHVLta/riPEly9gBcMbN++fQaPSOAPR4YZDPD48eNmZmbGOxxmywMHDlA+OB2WhtgbYQe8fPky1YelAa6dOnWK6mDYcT49Lt+Yx1mHsIm9e/d6W4JNqV0tbcxHDS1ub+wjL0RY2JcCdHJ/vG+FfHCWY8eOmbNnz1ayAk5YOsJgX331VVoSIBMis/3791MUVimkF1atBtSu+j+0Yw8vAAl7VSdPniRtA0L4fOnSJfqM2RKRGSI0jrqwFyH/AD5A68yZM7S5j2jtrbfeoiyIwFAeM7H+rR0NqF31f6zHHl5QsYyu8BkgA8BggJhB33zzTYq2EHUhupJ/gBOWkRJOKH/06FG/2Yhzhpksq+erWwNqV/0e3/8fx5Q+n0BANCwAAAAASUVORK5CYII=;" vertex="1" parent="1">
          <mxGeometry x="50" y="70" width="230.79" height="310" as="geometry" />
        </mxCell>
        <mxCell id="DEHo4Fuqt3TBxRoYZ2KS-18" value="" style="endArrow=classic;html=1;rounded=0;entryX=0.5;entryY=0;entryDx=0;entryDy=0;exitX=0.5;exitY=1;exitDx=0;exitDy=0;fillColor=#dae8fc;strokeColor=#6c8ebf;" edge="1" parent="1" target="DEHo4Fuqt3TBxRoYZ2KS-19">
          <mxGeometry width="50" height="50" relative="1" as="geometry">
            <mxPoint x="585" y="300" as="sourcePoint" />
            <mxPoint x="505" y="390" as="targetPoint" />
          </mxGeometry>
        </mxCell>
        <mxCell id="DEHo4Fuqt3TBxRoYZ2KS-30" value="只有一个非全" style="edgeLabel;html=1;align=center;verticalAlign=middle;resizable=0;points=[];" vertex="1" connectable="0" parent="DEHo4Fuqt3TBxRoYZ2KS-18">
          <mxGeometry x="-0.073" y="-3" relative="1" as="geometry">
            <mxPoint as="offset" />
          </mxGeometry>
        </mxCell>
        <mxCell id="DEHo4Fuqt3TBxRoYZ2KS-19" value="只显示分部分项(全费用)" style="ellipse;whiteSpace=wrap;html=1;fillColor=#dae8fc;strokeColor=#6c8ebf;" vertex="1" parent="1">
          <mxGeometry x="455" y="350" width="120" height="80" as="geometry" />
        </mxCell>
        <mxCell id="DEHo4Fuqt3TBxRoYZ2KS-20" value="" style="endArrow=classic;html=1;rounded=0;exitX=0.5;exitY=1;exitDx=0;exitDy=0;entryX=0.5;entryY=0;entryDx=0;entryDy=0;fillColor=#dae8fc;strokeColor=#6c8ebf;" edge="1" parent="1" target="DEHo4Fuqt3TBxRoYZ2KS-21">
          <mxGeometry width="50" height="50" relative="1" as="geometry">
            <mxPoint x="585" y="300" as="sourcePoint" />
            <mxPoint x="675" y="350" as="targetPoint" />
          </mxGeometry>
        </mxCell>
        <mxCell id="DEHo4Fuqt3TBxRoYZ2KS-31" value="其余情况" style="edgeLabel;html=1;align=center;verticalAlign=middle;resizable=0;points=[];" vertex="1" connectable="0" parent="DEHo4Fuqt3TBxRoYZ2KS-20">
          <mxGeometry x="-0.1162" relative="1" as="geometry">
            <mxPoint as="offset" />
          </mxGeometry>
        </mxCell>
        <mxCell id="DEHo4Fuqt3TBxRoYZ2KS-21" value="显示分部分项（全费用）与分部分项（非全费用）" style="ellipse;whiteSpace=wrap;html=1;fillColor=#dae8fc;strokeColor=#6c8ebf;" vertex="1" parent="1">
          <mxGeometry x="620" y="350" width="120" height="80" as="geometry" />
        </mxCell>
        <mxCell id="DEHo4Fuqt3TBxRoYZ2KS-28" value="判定" style="rhombus;whiteSpace=wrap;html=1;fillColor=#fff2cc;strokeColor=#d6b656;" vertex="1" parent="1">
          <mxGeometry x="525" y="220" width="120" height="80" as="geometry" />
        </mxCell>
      </root>
    </mxGraphModel>
  </diagram>
</mxfile>
